<?xml version="1.0" encoding="UTF-8" standalone="no"?>
<!-- Created with Inkscape (http://www.inkscape.org/) -->

<svg
   width="645.16498"
   height="747.38"
   viewBox="0 0 170.69992 197.74431"
   version="1.1"
   id="svg1"
   sodipodi:docname="fond.svg"
   inkscape:version="1.4.2 (ebf0e940d0, 2025-05-08)"
   xmlns:inkscape="http://www.inkscape.org/namespaces/inkscape"
   xmlns:sodipodi="http://sodipodi.sourceforge.net/DTD/sodipodi-0.dtd"
   xmlns="http://www.w3.org/2000/svg"
   xmlns:svg="http://www.w3.org/2000/svg">
  <sodipodi:namedview
     id="namedview1"
     pagecolor="#ffffff"
     bordercolor="#000000"
     borderopacity="0.25"
     inkscape:showpageshadow="2"
     inkscape:pageopacity="0.0"
     inkscape:pagecheckerboard="0"
     inkscape:deskcolor="#d1d1d1"
     inkscape:document-units="mm"
     showguides="true"
     inkscape:zoom="0.70710678"
     inkscape:cx="390.32294"
     inkscape:cy="355.67471"
     inkscape:window-width="1614"
     inkscape:window-height="981"
     inkscape:window-x="0"
     inkscape:window-y="0"
     inkscape:window-maximized="1"
     inkscape:current-layer="layer1">
    <inkscape:page
       x="9.6667987e-14"
       y="2.3706745e-07"
       width="172.02278"
       height="198.80252"
       id="page1"
       margin="0 0 0"
       bleed="0" />
  </sodipodi:namedview>
  <defs
     id="defs1" />
  <rect
     style="fill:#271d2a;fill-opacity:1;stroke:#271d2a;stroke-width:0.79375;stroke-linecap:square;stroke-dasharray:none;stroke-opacity:1"
     id="rect2"
     width="172.02277"
     height="198.80249"
     x="65.660461"
     y="-197.29311"
     transform="translate(-65.660463,197.2931)" />
  <g
     inkscape:label="Layer 1"
     inkscape:groupmode="layer"
     id="layer1"
     transform="rotate(-90,65.816317,131.47678)">
    <g
       id="g1"
       transform="translate(-6.5660165,33.834651)"
       style="stroke-width:1.32291667;stroke-dasharray:none">
      <path
         style="fill:none;stroke:#cc3e57;stroke-width:1.32291667;stroke-dasharray:none;stroke-opacity:1"
         d="m 105,73.468636 38.0806,21.985845 -1e-5,43.971689 L 105,161.41201 66.919394,139.42617 l 10e-7,-43.971691 z"
         id="path1" />
      <path
         d="m 105,86.380643 26.89847,15.529837 -1e-5,31.05968 L 105,148.5 78.101522,132.97016 v -31.05968 z"
         style="fill:none;stroke:#5fa1a3;stroke-width:1.32291667;stroke-dasharray:none;stroke-opacity:1"
         id="path1-2" />
      <path
         d="m 105,98.430257 16.4632,9.505033 v 19.01006 L 105,136.45039 88.536795,126.94535 v -19.01006 z"
         style="fill:none;stroke:#cc3e57;stroke-width:1.32291667;stroke-dasharray:none;stroke-opacity:1"
         id="path1-2-0" />
      <path
         style="fill:none;stroke:#5fa1a3;stroke-width:1.32291667;stroke-dasharray:none;stroke-opacity:1"
         d="m 105,60.363983 49.42956,28.538172 -1e-5,57.076345 L 105,174.51666 55.570436,145.9785 V 88.902152 Z"
         id="path1-6" />
    </g>
    <g
       id="g1-7"
       transform="translate(92.293107,33.834651)"
       style="stroke-width:1.32291667;stroke-dasharray:none">
      <path
         style="fill:none;stroke:#cc3e57;stroke-width:1.32291667;stroke-linecap:square;stroke-dasharray:none;stroke-opacity:1"
         d="M 105,161.41201 66.919394,139.42617 66.919395,95.454479 105,73.468636"
         id="path1-9"
         sodipodi:nodetypes="cccc" />
      <path
         d="M 105,148.5 78.101522,132.97016 V 101.91048 L 105,86.380643"
         style="fill:none;stroke:#5fa1a3;stroke-width:1.32291667;stroke-linecap:square;stroke-dasharray:none;stroke-opacity:1"
         id="path1-2-2"
         sodipodi:nodetypes="cccc" />
      <path
         d="M 105,136.45039 88.536795,126.94535 V 107.93529 L 105,98.430257"
         style="fill:none;stroke:#cc3e57;stroke-width:1.32291667;stroke-linecap:square;stroke-dasharray:none;stroke-opacity:1"
         id="path1-2-0-0"
         sodipodi:nodetypes="cccc" />
      <path
         style="fill:none;stroke:#5fa1a3;stroke-width:1.32291667;stroke-dasharray:none;stroke-opacity:1"
         d="M 105,174.51666 55.570436,145.9785 V 88.902152 L 105,60.363983"
         id="path1-6-2"
         sodipodi:nodetypes="cccc" />
    </g>
    <g
       id="g1-2"
       transform="translate(42.863548,-51.779866)"
       style="stroke-width:1.32291667;stroke-dasharray:none">
      <path
         style="fill:none;stroke:#cc3e57;stroke-width:1.32291667;stroke-dasharray:none;stroke-opacity:1"
         d="m 143.0806,117.44033 -1e-5,21.98584 L 105,161.41201 66.919394,139.42617 v -21.98585"
         id="path1-28"
         sodipodi:nodetypes="ccccc" />
      <path
         d="m 131.89847,117.44032 -1e-5,15.52984 L 105,148.5 78.101522,132.97016 v -15.52984"
         style="fill:none;stroke:#5fa1a3;stroke-width:1.32291667;stroke-dasharray:none;stroke-opacity:1"
         id="path1-2-9"
         sodipodi:nodetypes="ccccc" />
      <path
         d="m 121.4632,117.44032 v 9.50503 L 105,136.45039 88.536795,126.94535 v -9.50503"
         style="fill:none;stroke:#cc3e57;stroke-width:1.32291667;stroke-dasharray:none;stroke-opacity:1"
         id="path1-2-0-7"
         sodipodi:nodetypes="ccccc" />
      <path
         style="fill:none;stroke:#5fa1a3;stroke-width:1.32291667;stroke-linecap:square;stroke-dasharray:none;stroke-opacity:1"
         d="M 55.570436,117.44033 V 145.9785 L 105,174.51666 154.42955,145.9785 v -28.53817"
         id="path1-6-3"
         sodipodi:nodetypes="ccccc" />
    </g>
    <g
       id="g1-3"
       transform="translate(42.863548,119.44916)"
       style="stroke-width:1.32291667;stroke-dasharray:none">
      <path
         style="fill:none;stroke:#cc3e57;stroke-width:1.32291667;stroke-dasharray:none;stroke-opacity:1"
         d="m 66.919394,117.44032 10e-7,-21.985841 L 105,73.468636 143.0806,95.454481 v 21.985849"
         id="path1-1"
         sodipodi:nodetypes="ccccc" />
      <path
         d="M 78.101522,117.44032 V 101.91048 L 105,86.380643 131.89847,101.91048 v 15.52984"
         style="fill:none;stroke:#5fa1a3;stroke-width:1.32291667;stroke-dasharray:none;stroke-opacity:1"
         id="path1-2-94"
         sodipodi:nodetypes="ccccc" />
      <path
         d="m 88.536795,117.44032 v -9.50503 L 105,98.430257 l 16.4632,9.505033 v 9.50503"
         style="fill:none;stroke:#cc3e57;stroke-width:1.32291667;stroke-dasharray:none;stroke-opacity:1"
         id="path1-2-0-78"
         sodipodi:nodetypes="ccccc" />
      <path
         style="fill:none;stroke:#5fa1a3;stroke-width:1.32291667;stroke-linecap:square;stroke-dasharray:none;stroke-opacity:1"
         d="M 55.570436,88.902152 105,60.363983 154.42956,88.902155 v 28.538175"
         id="path1-6-4"
         sodipodi:nodetypes="cccc" />
    </g>
    <g
       id="g1-1"
       transform="translate(-55.995578,119.44917)"
       style="stroke-width:1.32291667;stroke-dasharray:none">
      <path
         style="fill:none;stroke:#cc3e57;stroke-width:1.32291667;stroke-dasharray:none;stroke-opacity:1"
         d="m 66.919394,117.44032 10e-7,-21.985841 L 105,73.468636 143.0806,95.454481 v 21.985849"
         id="path1-0"
         sodipodi:nodetypes="ccccc" />
      <path
         d="M 78.101522,117.44032 V 101.91048 L 105,86.380643 131.89847,101.91048 v 15.52984"
         style="fill:none;stroke:#5fa1a3;stroke-width:1.32291667;stroke-dasharray:none;stroke-opacity:1"
         id="path1-2-6"
         sodipodi:nodetypes="ccccc" />
      <path
         d="m 88.536795,117.44032 v -9.50503 L 105,98.430257 l 16.4632,9.505033 v 9.50503"
         style="fill:none;stroke:#cc3e57;stroke-width:1.32291667;stroke-dasharray:none;stroke-opacity:1"
         id="path1-2-0-3"
         sodipodi:nodetypes="ccccc" />
      <path
         style="fill:none;stroke:#5fa1a3;stroke-width:1.32291667;stroke-dasharray:none;stroke-opacity:1"
         d="M 55.570436,117.44033 V 88.902152 L 105,60.363983 154.42956,88.902155 v 28.538175"
         id="path1-6-20"
         sodipodi:nodetypes="ccccc" />
    </g>
    <g
       id="g1-4"
       transform="translate(-105.42513,33.834639)"
       style="stroke-width:1.32291667;stroke-dasharray:none">
      <path
         style="fill:none;stroke:#cc3e57;stroke-width:1.32291667;stroke-linecap:square;stroke-dasharray:none;stroke-opacity:1"
         d="m 105,73.468636 38.0806,21.985845 -1e-5,43.971689 L 105,161.41201"
         id="path1-7"
         sodipodi:nodetypes="cccc" />
      <path
         d="m 105,86.380643 26.89847,15.529837 -1e-5,31.05968 L 105,148.5"
         style="fill:none;stroke:#5fa1a3;stroke-width:1.32291667;stroke-linecap:square;stroke-dasharray:none;stroke-opacity:1"
         id="path1-2-65"
         sodipodi:nodetypes="cccc" />
      <path
         d="m 105,98.430257 16.4632,9.505033 v 19.01006 L 105,136.45039"
         style="fill:none;stroke:#cc3e57;stroke-width:1.32291667;stroke-linecap:square;stroke-dasharray:none;stroke-opacity:1"
         id="path1-2-0-6"
         sodipodi:nodetypes="cccc" />
      <path
         style="fill:none;stroke:#5fa1a3;stroke-width:1.32291667;stroke-dasharray:none;stroke-opacity:1"
         d="m 105,60.363983 49.42956,28.538172 -1e-5,57.076345 L 105,174.51666"
         id="path1-6-9"
         sodipodi:nodetypes="cccc" />
    </g>
    <g
       id="g1-25"
       transform="translate(-55.598679,-51.779856)"
       style="stroke-width:1.32291667;stroke-dasharray:none">
      <path
         style="fill:none;stroke:#cc3e57;stroke-width:1.32291667;stroke-dasharray:none;stroke-opacity:1"
         d="m 142.68371,117.44032 -1e-5,21.98584 -38.08059,21.98584 -38.080603,-21.98584 v -21.98585"
         id="path1-4"
         sodipodi:nodetypes="ccccc" />
      <path
         d="m 131.50158,117.44031 -1e-5,15.52984 -26.89846,15.52984 -26.898475,-15.52984 v -15.52984"
         style="fill:none;stroke:#5fa1a3;stroke-width:1.32291667;stroke-dasharray:none;stroke-opacity:1"
         id="path1-2-7"
         sodipodi:nodetypes="ccccc" />
      <path
         d="m 121.06631,117.44031 v 9.50503 l -16.4632,9.50504 -16.463202,-9.50504 v -9.50503"
         style="fill:none;stroke:#cc3e57;stroke-width:1.32291667;stroke-dasharray:none;stroke-opacity:1"
         id="path1-2-0-4"
         sodipodi:nodetypes="ccccc" />
      <path
         style="fill:none;stroke:#5fa1a3;stroke-width:1.32291667;stroke-dasharray:none;stroke-opacity:1"
         d="m 154.03267,117.44032 -1e-5,28.53817 -49.42955,28.53816 -49.429561,-28.53816 v -28.53817"
         id="path1-6-43"
         sodipodi:nodetypes="ccccc" />
    </g>
  </g>
</svg>
